<?xml version="1.0" encoding="utf-8"?>
<!-- Generator: Adobe Illustrator 28.2.0, SVG Export Plug-In . SVG Version: 6.00 Build 0)  -->
<svg version="1.1" id="Calque_2_00000173151862534763366710000009330806432032640442_"
	 xmlns="http://www.w3.org/2000/svg" xmlns:xlink="http://www.w3.org/1999/xlink" x="0px" y="0px" viewBox="0 0 967.2 967.2"
	 style="enable-background:new 0 0 967.2 967.2;" xml:space="preserve">
<style type="text/css">
	.st0{fill:#66FFFF;}
	.st1{fill:#EDD76B;}
	.st2{fill:#C41FDB;}
	.st3{fill:#51CEC4;}
	.st4{fill:#AEFFFB;}
	.st5{fill:#0B877B;}
</style>
<g id="Calque_10">
	<g>
		<polygon class="st0" points="543.4,345.4 663.1,276.3 902.4,414.5 782.7,483.6 		"/>
		<polygon class="st1" points="543.4,483.6 543.4,345.4 782.7,483.6 782.7,621.8 		"/>
		<polygon class="st2" points="902.4,414.5 902.4,552.7 782.7,621.8 782.7,483.6 		"/>
		<polygon class="st0" points="64.8,207.2 304.1,69.1 423.8,138.2 184.5,276.3 		"/>
		<polygon class="st3" points="64.8,345.4 64.8,207.2 184.5,276.3 184.5,414.5 		"/>
		<polygon class="st2" points="423.8,138.2 423.8,276.4 184.5,414.5 184.5,276.3 		"/>
		<polygon class="st4" points="649.2,69.1 722.9,207.3 649.2,345.4 575.5,207.3 		"/>
		<polygon class="st0" points="543.4,69.1 663.1,0 902.4,138.2 782.7,207.3 		"/>
		<polygon class="st1" points="543.4,207.3 543.4,69.1 782.7,207.3 782.7,345.4 		"/>
		<polygon class="st5" points="902.4,138.2 902.4,276.3 782.7,345.4 782.7,207.3 		"/>
		<polygon class="st0" points="902.4,138.2 782.7,69.1 543.4,207.3 663.1,276.3 		"/>
		<polygon class="st2" points="902.4,276.3 902.4,138.2 663.1,276.3 663.1,414.5 		"/>
		<polygon class="st1" points="543.4,207.3 543.4,345.4 663.1,414.5 663.1,276.3 		"/>
		<polygon class="st4" points="304.1,345.4 423.8,276.4 543.4,345.4 423.8,414.5 		"/>
		<polygon class="st1" points="304.1,898.1 304.1,345.4 423.8,414.5 423.8,967.2 		"/>
		<polygon class="st2" points="543.4,345.4 543.4,898.1 423.8,967.2 423.8,414.5 		"/>
		<polygon class="st0" points="64.8,207.3 184.5,138.2 543.4,345.4 423.8,414.5 		"/>
		<polygon class="st1" points="64.8,345.4 64.8,207.3 423.8,414.5 423.8,552.7 		"/>
		<polygon class="st2" points="543.4,345.4 543.4,483.6 423.8,552.7 423.8,414.5 		"/>
	</g>
</g>
</svg>
